<svg xmlns="http://www.w3.org/2000/svg" width="24" height="24" viewBox="0 0 24 24"><defs><style>.a{fill:none;}.b{fill:#fe7b51;}</style></defs><rect class="a" width="24" height="24"/><path class="b" d="M219.962,253.6V241.753h-1.573v-.463h-4.126v.463h-.06v1.923h1.436v1.907H214.2v1.212h1.436V248.7H214.2v1.212h1.436v1.907H214.2V253.6H213.7v-15.47h-2.053v-.605h-5.386v.605H204.2V253.6h-1.926v1.181h19.829V253.6Zm-2.95-9.92h1.907v1.907h-1.907Zm0,3.119h1.907V248.7h-1.907Zm0,3.119h1.907v1.907h-1.907Zm-7.166-9.278h2.49v2.489h-2.49Zm0,4.071h2.49v2.49h-2.49Zm0,4.072h2.49v2.489h-2.49Zm-4.282-8.143h2.489v2.489h-2.489Zm0,4.071h2.489v2.49h-2.489Zm0,4.072h2.489v2.489h-2.489Z" transform="translate(-200.191 -234.149)"/></svg>