<svg xmlns="http://www.w3.org/2000/svg" width="24" height="24" viewBox="0 0 24 24"><defs><style>.a{fill:none;}.b{fill:#fff;}</style></defs><rect class="a" width="24" height="24"/><path class="b" d="M168.152,285.444a9,9,0,1,1,8.994-8.972A8.946,8.946,0,0,1,168.152,285.444Zm1.5-14.913c-.488.315-.913.564-1.311.85a10.752,10.752,0,0,0-3.914,4.6,5.7,5.7,0,0,0-.435,3.5,4.489,4.489,0,0,0,3.255,3.219c.012.005.034-.02.068-.042a8.012,8.012,0,0,1-1.068-4.535,5.878,5.878,0,0,1,2.2-4.044c-.038.8-.118,1.562-.1,2.322a3.266,3.266,0,0,0,.792,2.158,2.923,2.923,0,0,1,.337-1.577c.333.683.648,1.366.993,2.032a2.725,2.725,0,0,1,.009,2.685c-.173.325-.362.642-.584,1.034a4.2,4.2,0,0,0,.448-.206,4.8,4.8,0,0,0,2.29-4.233,8.155,8.155,0,0,0-.682-3.186,13.385,13.385,0,0,1-.465-1.547,2.654,2.654,0,0,1-.038-.515l-.093-.062-1.073.857A4.3,4.3,0,0,1,169.655,270.531Z" transform="translate(-156.149 -264.447)"/></svg>