<svg xmlns="http://www.w3.org/2000/svg" xmlns:xlink="http://www.w3.org/1999/xlink" width="32" height="32" viewBox="0 0 32 32"><defs><style>.a{fill:url(#a);}.b{fill:none;}.c{fill:#c6c6c6;}.d{clip-path:url(#b);}.e{fill:#fff;}</style><linearGradient id="a" y1="0.5" x2="1" y2="0.5" gradientUnits="objectBoundingBox"><stop offset="0" stop-color="#ff9e00"/><stop offset="1" stop-color="#f15454"/></linearGradient><clipPath id="b"><circle class="a" cx="16" cy="16" r="16" transform="translate(704 727.681)"/></clipPath></defs><rect class="b" width="32" height="32" transform="translate(0 0)"/><g transform="translate(-704 -727.681)"><circle class="c" cx="16" cy="16" r="16" transform="translate(704 727.681)"/><g class="d"><path class="e" d="M733.329,753.14a2.507,2.507,0,0,0-1.386-2.336q-3.829-2.073-7.659-4.143a.522.522,0,0,0-.555-.006,7.619,7.619,0,0,1-7.437.007.551.551,0,0,0-.592.008c-.713.4-1.435.781-2.153,1.169-1.836.99-3.676,1.973-5.506,2.973a2.483,2.483,0,0,0-1.368,2.308c0,.729-.014,5.458,0,6.187a1.714,1.714,0,0,0,1.794,1.735q5.751,0,11.5,0h1.659q4.959,0,9.917,0a1.718,1.718,0,0,0,1.784-1.786C733.336,758.547,733.334,753.843,733.329,753.14Z"/><path class="e" d="M724.685,743.946a8.593,8.593,0,0,0-.1-11.646,6.293,6.293,0,0,0-9.192.029,8,8,0,0,0-2.307,5.451,8.8,8.8,0,0,0,1.728,5.594A6.338,6.338,0,0,0,724.685,743.946Z"/></g></g></svg>