<svg xmlns="http://www.w3.org/2000/svg" width="24" height="24" viewBox="0 0 24 24"><defs><style>.a{fill:#fe7b51;}.b{fill:none;}</style></defs><g transform="translate(-156.149 -234.149)"><path class="a" d="M168.145,241.524c1.328,1.089,2.641,2.164,3.952,3.24.944.775,1.884,1.557,2.832,2.326a.548.548,0,0,1,.224.477c-.007,1.825,0,3.651-.005,5.476,0,.629-.278.909-.9.909q-6.079,0-12.16,0c-.691,0-.96-.263-.961-.945,0-1.816,0-3.633.006-5.449a.592.592,0,0,1,.169-.409q3.348-2.775,6.713-5.529C168.046,241.591,168.085,241.566,168.145,241.524Zm3.054,5.2a.709.709,0,0,0-.457-.592.547.547,0,0,0-.624.193q-2.385,2.371-4.765,4.748a.583.583,0,0,0-.052.851.569.569,0,0,0,.87-.015c.253-.235.493-.485.738-.729q1.974-1.971,3.943-3.946A3.268,3.268,0,0,0,171.2,246.725Zm-5.345,1.823a1.721,1.721,0,1,0,.036-3.442,1.721,1.721,0,1,0-.036,3.442Zm4.57,4.569a1.755,1.755,0,0,0,1.737-1.721,1.72,1.72,0,0,0-1.722-1.725,1.741,1.741,0,0,0-1.746,1.711A1.768,1.768,0,0,0,170.424,253.117Z"/><path class="a" d="M172.09,241.151v-.7c0-.553,0-1.1,0-1.657,0-.324.077-.4.4-.4q1.11-.006,2.219,0c.334,0,.428.1.429.444,0,1.5.007,3-.005,4.494a.718.718,0,0,0,.3.636c.78.623,1.541,1.27,2.306,1.911.292.245.3.422.061.714-.191.23-.382.46-.578.686a.46.46,0,0,1-.727.061q-2.472-2.058-4.946-4.116c-1.062-.883-2.129-1.76-3.185-2.65a.289.289,0,0,0-.451,0q-2.985,2.494-5.98,4.976l-2.15,1.79a.458.458,0,0,1-.726-.066c-.2-.226-.387-.456-.578-.686-.244-.295-.224-.489.074-.737q2.712-2.254,5.424-4.507,1.562-1.3,3.122-2.59a1.494,1.494,0,0,1,2.063-.007c.866.722,1.729,1.449,2.6,2.172C171.84,240.99,171.927,241.04,172.09,241.151Z"/><path class="a" d="M165.853,247.373a.525.525,0,0,1-.533-.557.51.51,0,0,1,.564-.518.541.541,0,0,1,.544.549A.554.554,0,0,1,165.853,247.373Z"/><path class="a" d="M170.431,250.853a.518.518,0,0,1,.549.537.555.555,0,0,1-.551.551.584.584,0,0,1-.558-.553A.545.545,0,0,1,170.431,250.853Z"/></g><rect class="b" width="24" height="24"/></svg>