<svg xmlns="http://www.w3.org/2000/svg" width="24" height="24" viewBox="0 0 24 24"><defs><style>.a{fill:none;}.b{fill:#fff;}</style></defs><rect class="a" width="24" height="24"/><path class="b" d="M212.185,269.229q4.247,0,8.493,0A1.3,1.3,0,0,1,222,270.347a4.652,4.652,0,0,1,.016.614q0,5.673,0,11.348a1.307,1.307,0,0,1-1.356,1.356h-16.9a1.3,1.3,0,0,1-1.4-1.4q0-5.847,0-11.692a1.3,1.3,0,0,1,1.365-1.345Zm-2.6,11.813v0q1.934,0,3.866,0a.644.644,0,0,0,.7-.681,3.963,3.963,0,0,0-.367-1.553,1,1,0,0,0-.569-.55c-.525-.19-1.053-.375-1.577-.572a.31.31,0,0,0-.353.07,2.6,2.6,0,0,1-1.824.659,2.765,2.765,0,0,1-1.64-.677c-.055-.044-.148-.1-.2-.081-.607.213-1.216.424-1.809.67a.893.893,0,0,0-.392.378,3.555,3.555,0,0,0-.427,1.7.615.615,0,0,0,.509.617,1.477,1.477,0,0,0,.3.023Zm1.951-7.053v-.119a1.975,1.975,0,0,0-1.773-2.005,1.955,1.955,0,0,0-2.125,1.643,3.946,3.946,0,0,0,.112,1.574,2.87,2.87,0,0,0,1.012,1.724,1.225,1.225,0,0,0,1.371.154,2.156,2.156,0,0,0,.912-.947A4.516,4.516,0,0,0,211.534,273.989Zm5.248,3.116c.632,0,1.264,0,1.9,0a.664.664,0,0,0,.716-.65.656.656,0,0,0-.7-.663q-1.9,0-3.808,0a.664.664,0,0,0-.727.658.67.67,0,0,0,.731.655Zm0-3.938c.644,0,1.287,0,1.931,0a.673.673,0,0,0,.638-.419.655.655,0,0,0-.639-.891q-1.914-.007-3.827,0a.67.67,0,0,0-.73.658.677.677,0,0,0,.732.656Z" transform="translate(-200.191 -264.447)"/></svg>