<svg xmlns="http://www.w3.org/2000/svg" width="24" height="24" viewBox="0 0 24 24"><defs><style>.a{fill:none;}.b{fill:#fe7b51;}</style></defs><rect class="a" width="24" height="24"/><g transform="translate(-156.149 -294.915)"><path class="b" d="M164.514,298.478c1.3,0,2.593,0,3.889.005a1.616,1.616,0,0,1,.407.112,1.941,1.941,0,0,1-.12.4,7.828,7.828,0,0,0-.181,7.742c.023.047.051.093.076.14.179.338.12.445-.257.441q-1.2-.012-2.391-.034-2.678-.051-5.354-.113a.7.7,0,0,1-.429-.141,5.626,5.626,0,0,1-1.047-7.188,8.343,8.343,0,0,1,1.013-1.18.775.775,0,0,1,.505-.192c1.3-.016,2.593-.009,3.889-.009Z"/><path class="b" d="M170.313,304.878a2.316,2.316,0,0,1,.318.481c.278.79.523,1.591.795,2.383a9.428,9.428,0,0,0,.426,1.023.341.341,0,0,0,.268.173c.082-.012.178-.145.21-.244a2.7,2.7,0,0,0-.111-1.929,5.263,5.263,0,0,0-1.531-2.2,2.212,2.212,0,0,1-.231-.242l.061-.112a1.75,1.75,0,0,1,.52.24,5.651,5.651,0,0,1,.618.765c.229.32.43.659.658.979a1.359,1.359,0,0,0,.37.388.594.594,0,0,0,.456.071c.075-.03.125-.292.082-.413-.158-.448-.36-.879-.564-1.361a1.44,1.44,0,0,1,.377.185,7.331,7.331,0,0,1,1.023,1.04,26.648,26.648,0,0,1,3.516,6.369,12.8,12.8,0,0,1,.447,1.625c.141.66-.071.878-.741.779a3.364,3.364,0,0,1-.849-.261,1.561,1.561,0,0,0-1.574.15c-.16.105-.316.216-.475.322a1.124,1.124,0,0,1-1.5-.013,1.514,1.514,0,0,0-2.148-.075,2.532,2.532,0,0,1-.509.264c-.384.169-.509.079-.459-.347a4.793,4.793,0,0,1,.153-.748,11.021,11.021,0,0,1,.392-1.244,9.056,9.056,0,0,0,.485-4.7c-.13-1.02-.362-2.027-.546-3.04-.015-.082-.019-.167-.028-.25Z"/><path class="b" d="M173.64,304.182c-.823-.227-.923-.345-.932-1.058a5.374,5.374,0,0,0-.327-2.1,3.974,3.974,0,0,0-.662-1.073.946.946,0,0,0-1.526,0,3.693,3.693,0,0,0-.941,2.018,13.57,13.57,0,0,0,.031,4,1.268,1.268,0,0,1,0,.421,2.6,2.6,0,0,1-.129-.237,7.567,7.567,0,0,1-.578-4.877,3.936,3.936,0,0,1,1.46-2.258,1.476,1.476,0,0,1,2.335.35,6.775,6.775,0,0,1,1.09,2.962C173.552,302.93,173.578,303.534,173.64,304.182Z"/></g></svg>